# xmcd
#
# Track frame offsets:
#	150
#	13935
#	29933
#	45675
#	57103
#	69538
#	83358
#	99498
#	112535
#	130578
#	142515
#	149765
#	168578
#	188628
#	199900
#	212788
#
# Disc length: 3003
#
# Revision: 2
# Processed by: cddbd v1.5.1PL0 Copyright (c) Steve Scherf et al.
# Submitted via: audiograbber 1.80.04
# Normalized: r1:DSETVAR1
#
DISCID=dd0bb910
DTITLE=Various Artist - Country  Instrumental
DYEAR=1900
DGENRE=Instrumental
TTITLE0=Mr.Guitarman - Apache
TTITLE1=Chano - Last Date
TTITLE2=Chano - Please Don't Tell Me How The Story Ends ...
TTITLE3=Chano - Wheels
TTITLE4=Chano - Ghost Riders In The Sky
TTITLE5=Chano - Chico
TTITLE6=Chano - Shane
TTITLE7=Mr.Guitarman - Let Your Love Flow
TTITLE8=Chano - Joey's Song
TTITLE9=Chano - Take These Chains From Love Flow
TTITLE10=Chano - Yakety Axe
TTITLE11=Chano - Maria Elena
TTITLE12=Chano - Home On The Range
TTITLE13=The Twins - Bonanza
TTITLE14=Mr.Guitarman - The Last Farewelell
TTITLE15=Phill Barrett - King Of The Road
EXTD=
EXTT0=
EXTT1=
EXTT2=
EXTT3=
EXTT4=
EXTT5=
EXTT6=
EXTT7=
EXTT8=
EXTT9=
EXTT10=
EXTT11=
EXTT12=
EXTT13=
EXTT14=
EXTT15=
PLAYORDER=
